<svg width="395" height="398" viewBox="0 0 395 398" fill="none" xmlns="http://www.w3.org/2000/svg">
<path d="M111.699 150.769C172.204 133.67 232.553 116.075 293.059 99.0811C298.317 96.9864 302.319 101.961 306.164 104.658C319.008 115.708 333.265 125.134 344.853 137.598C334.547 142.783 323.848 147.181 312.861 150.769C253.402 171.585 193.864 192.428 133.332 209.997C118.369 192.271 100.66 177.162 85.095 160.038C93.0212 154.67 102.7 153.387 111.699 150.769Z" fill="#FFE498"/>
<path d="M10.2543 216.491C32.3063 218.298 54.4106 219.843 76.4888 221.807C74.9977 221.911 71.9894 222.095 70.4984 222.199C80.8573 242.178 97.3113 257.967 115.021 271.452C93.9368 270.326 72.4603 273.547 51.6116 269.986C40.651 260.14 32.6987 247.31 21.4503 237.648C16.4017 230.893 11.2222 224.242 6.04272 217.617C7.08908 217.329 9.20796 216.779 10.2543 216.491Z" fill="#FFE498"/>
<path d="M344.853 137.598L346.554 136.76C345.246 147.339 344.173 157.917 343.467 168.548C341.976 181.771 341.008 195.046 341.4 208.374C312.233 225.394 279.142 233.511 248.013 246.053C218.27 258.334 187.847 268.912 158 280.931C140.317 288.288 121.901 294.049 102.962 297.086C91.5301 299.233 82.1129 290.697 71.597 287.974C63.5401 285.748 55.0384 286.586 46.7722 286.246C42.5083 268.074 29.5857 254.039 21.4503 237.648C32.6987 247.31 40.651 260.14 51.6116 269.986C72.4603 273.547 93.9367 270.326 115.021 271.452C97.3112 257.967 80.8573 242.178 70.4983 222.199C71.9894 222.095 74.9977 221.911 76.4887 221.807C79.3139 221.911 82.1652 221.99 85.0165 222.095C84.8334 225.682 84.1795 229.662 86.4553 232.778C96.0818 247.415 108.612 260.009 122.581 270.535C123.13 275.091 123.627 279.674 124.098 284.23C127.368 284.492 130.585 284.937 133.777 285.539C136.55 260.35 130.559 235.187 133.332 209.997C193.864 192.428 253.402 171.585 312.861 150.769C323.848 147.182 334.547 142.783 344.853 137.598Z" fill="#DEB654"/>
<path d="M84.2318 159.095L85.0951 160.038C100.66 177.162 118.369 192.271 133.332 209.997C130.559 235.187 136.55 260.35 133.777 285.539C130.585 284.937 127.368 284.491 124.098 284.23C123.627 279.674 123.13 275.091 122.581 270.535C108.612 260.009 96.0818 247.415 86.4553 232.778C84.1795 229.662 84.8335 225.682 85.0166 222.094C86.4553 206.253 85.3305 190.359 84.6504 174.518C84.4149 169.386 84.4149 164.227 84.2318 159.095Z" fill="#C88D20"/>
<path d="M4.86557 216.125L6.04272 217.617C11.2222 224.242 16.4017 230.892 21.4503 237.648C29.5858 254.039 42.5083 268.074 46.7722 286.246C36.2301 279.255 29.4288 268.336 21.1887 258.988C15.7477 251.971 9.31259 245.66 4.68246 238.015C3.34835 230.788 4.57782 223.378 4.86557 216.125Z" fill="#C88D20"/>
<path d="M343.467 168.548C358.43 178.917 371.771 191.407 385.74 203.059C390.579 206.594 393.169 212.721 391.076 218.56C384.196 226.729 373.497 229.767 364.08 233.93C288.742 262.732 213.719 292.425 138.459 321.437C129.251 324.658 120.043 330.314 109.92 328.664C103.485 326.648 98.6454 321.621 94.5646 316.489C87.057 306.853 78.6076 297.976 71.597 287.974C82.1129 290.697 91.5302 299.233 102.962 297.086C121.901 294.049 140.317 288.288 158 280.93C187.847 268.912 218.27 258.334 248.013 246.053C279.142 233.511 312.233 225.394 341.4 208.374C341.008 195.046 341.976 181.771 343.467 168.548Z" fill="#D9DBE1"/>
<path d="M18.1543 194.261C40.2848 187.584 62.5199 181.221 84.6504 174.518C85.3305 190.36 86.4553 206.253 85.0166 222.095C82.1653 221.99 79.3139 221.911 76.4888 221.807C54.4106 219.843 32.3063 218.298 10.2543 216.491C8.58015 211.673 5.20564 206.986 6.61823 201.619C8.52783 196.932 13.8381 195.727 18.1543 194.261Z" fill="#D9DBE1"/>
</svg>
