<?xml version="1.0" encoding="UTF-8" ?>
<!DOCTYPE svg PUBLIC "-//W3C//DTD SVG 1.1//EN" "http://www.w3.org/Graphics/SVG/1.1/DTD/svg11.dtd">
<svg width="151pt" height="152pt" viewBox="0 0 151 152" version="1.1" xmlns="http://www.w3.org/2000/svg">
<g id="#ffe498ff">
<path fill="#ffe498" opacity="1.00" d=" M 42.70 57.58 C 65.83 51.05 88.90 44.33 112.03 37.84 C 114.04 37.04 115.57 38.94 117.04 39.97 C 121.95 44.19 127.40 47.79 131.83 52.55 C 127.89 54.53 123.80 56.21 119.60 57.58 C 96.87 65.53 74.11 73.49 50.97 80.20 C 45.25 73.43 38.48 67.66 32.53 61.12 C 35.56 59.07 39.26 58.58 42.70 57.58 Z" />
<path fill="#ffe498" opacity="1.00" d=" M 3.92 82.68 C 12.35 83.37 20.80 83.96 29.24 84.71 C 28.67 84.75 27.52 84.82 26.95 84.86 C 30.91 92.49 37.20 98.52 43.97 103.67 C 35.91 103.24 27.70 104.47 19.73 103.11 C 15.54 99.35 12.50 94.45 8.20 90.76 C 6.27 88.18 4.29 85.64 2.31 83.11 C 2.71 83.00 3.52 82.79 3.92 82.68 Z" />
</g>
<g id="#deb654ff">
<path fill="#deb654" opacity="1.00" d=" M 131.83 52.55 L 132.48 52.23 C 131.98 56.27 131.57 60.31 131.30 64.37 C 130.73 69.42 130.36 74.49 130.51 79.58 C 119.36 86.08 106.71 89.18 94.81 93.97 C 83.44 98.66 71.81 102.70 60.40 107.29 C 53.64 110.10 46.60 112.30 39.36 113.46 C 34.99 114.28 31.39 111.02 27.37 109.98 C 24.29 109.13 21.04 109.45 17.88 109.32 C 16.25 102.38 11.31 97.02 8.20 90.76 C 12.50 94.45 15.54 99.35 19.73 103.11 C 27.70 104.47 35.91 103.24 43.97 103.67 C 37.20 98.52 30.91 92.49 26.95 84.86 C 27.52 84.82 28.67 84.75 29.24 84.71 C 30.32 84.75 31.41 84.78 32.50 84.82 C 32.43 86.19 32.18 87.71 33.05 88.90 C 36.73 94.49 41.52 99.30 46.86 103.32 C 47.07 105.06 47.26 106.81 47.44 108.55 C 48.69 108.65 49.92 108.82 51.14 109.05 C 52.20 99.43 49.91 89.82 50.97 80.20 C 74.11 73.49 96.87 65.53 119.60 57.58 C 123.80 56.21 127.89 54.53 131.83 52.55 Z" />
</g>
<g id="#c88d20ff">
<path fill="#c88d20" opacity="1.00" d=" M 32.20 60.76 L 32.53 61.12 C 38.48 67.66 45.25 73.43 50.97 80.20 C 49.91 89.82 52.20 99.43 51.14 109.05 C 49.92 108.82 48.69 108.65 47.44 108.55 C 47.26 106.81 47.07 105.06 46.86 103.32 C 41.52 99.30 36.73 94.49 33.05 88.90 C 32.18 87.71 32.43 86.19 32.50 84.82 C 33.05 78.77 32.62 72.70 32.36 66.65 C 32.27 64.69 32.27 62.72 32.20 60.76 Z" />
<path fill="#c88d20" opacity="1.00" d=" M 1.86 82.54 L 2.31 83.11 C 4.29 85.64 6.27 88.18 8.20 90.76 C 11.31 97.02 16.25 102.38 17.88 109.32 C 13.85 106.65 11.25 102.48 8.10 98.91 C 6.02 96.23 3.56 93.82 1.79 90.90 C 1.28 88.14 1.75 85.31 1.86 82.54 Z" />
</g>
<g id="#d9dbe1ff">
<path fill="#d9dbe1" opacity="1.00" d=" M 131.30 64.37 C 137.02 68.33 142.12 73.10 147.46 77.55 C 149.31 78.90 150.30 81.24 149.50 83.47 C 146.87 86.59 142.78 87.75 139.18 89.34 C 110.38 100.34 81.70 111.68 52.93 122.76 C 49.41 123.99 45.89 126.15 42.02 125.52 C 39.56 124.75 37.71 122.83 36.15 120.87 C 33.28 117.19 30.05 113.80 27.37 109.98 C 31.39 111.02 34.99 114.28 39.36 113.46 C 46.60 112.30 53.64 110.10 60.40 107.29 C 71.81 102.70 83.44 98.66 94.81 93.97 C 106.71 89.18 119.36 86.08 130.51 79.58 C 130.36 74.49 130.73 69.42 131.30 64.37 Z" />
<path fill="#d9dbe1" opacity="1.00" d=" M 6.94 74.19 C 15.40 71.64 23.90 69.21 32.36 66.65 C 32.62 72.70 33.05 78.77 32.50 84.82 C 31.41 84.78 30.32 84.75 29.24 84.71 C 20.80 83.96 12.35 83.37 3.92 82.68 C 3.28 80.84 1.99 79.05 2.53 77.00 C 3.26 75.21 5.29 74.75 6.94 74.19 Z" />
</g>
</svg>
