<svg width="194" height="197" viewBox="0 0 194 197" fill="none" xmlns="http://www.w3.org/2000/svg">
<path d="M65.6496 16.9546C70.0589 11.8803 76.6012 9.04576 83.1644 8.23366C85.605 8.22842 88.0483 8.1865 90.4889 8.24676C94.481 8.78641 98.3193 10.3268 101.647 12.6007C103.915 14.2196 105.675 16.4149 107.706 18.2985C111.839 21.0544 116.679 22.5528 121.521 23.4514C122.851 23.4671 124.095 24.0513 125.427 23.9963C126.327 23.9491 127.187 24.2425 128.058 24.4207C129.432 24.6198 130.835 24.3473 132.209 24.5726C133.151 24.7665 134.095 24.9996 135.065 24.9865C138.543 24.9865 142.021 24.9865 145.5 24.976C147.86 24.8529 150.17 25.5314 152.368 26.3304C155.299 27.5145 158.024 29.2854 160.191 31.6091C161.857 33.7284 163.291 36.1175 163.831 38.7975C164.097 40.33 164.73 41.7551 165.471 43.1121C166.472 44.9511 166.691 47.0626 167.101 49.0823C167.299 50.1748 167.2 51.2907 167.226 52.3962C167.286 54.2038 166.683 55.9354 166.271 57.6723C166.065 58.2669 166.467 58.8092 166.691 59.3305C167.799 61.4761 168.227 63.894 168.553 66.2622C168.563 78.6664 168.553 91.0732 168.556 103.477C168.595 104.965 168.462 106.464 168.639 107.944C169.659 108.497 170.79 108.869 171.669 109.657C172.827 110.695 173.958 111.808 174.738 113.17C175.492 114.477 175.961 115.931 176.344 117.388C176.543 118.763 176.318 120.165 176.472 121.548C176.621 122.504 176.882 123.447 176.879 124.424C176.876 130.017 176.866 135.608 176.874 141.201C176.928 143.391 176.597 145.563 176.42 147.74C176.399 151.153 176.438 154.569 176.41 157.985C176.18 161.498 174.157 164.631 171.531 166.858C170.498 167.738 169.416 168.59 168.151 169.103C165.374 170.308 162.3 170.366 159.388 171.052C158.431 171.301 157.445 171.411 156.459 171.456C152.981 172.053 149.502 172.645 146.024 173.24C143.33 173.729 140.595 173.947 137.92 174.544C136.358 174.654 134.796 174.764 133.234 174.906C134.288 174.858 135.341 174.788 136.394 174.864C135.62 175.047 134.819 175.076 134.032 175.152C130.898 175.773 127.717 176.1 124.572 176.661C118.259 177.785 111.912 178.667 105.597 179.773C103.169 180.142 100.744 180.572 98.2958 180.742C90.5697 181.987 82.8671 183.341 75.1358 184.546C72.4944 185.091 69.806 185.382 67.188 186.039C64.604 186.398 61.9678 187.071 59.3681 186.461C54.3043 185.644 49.8167 183.014 45.1336 181.078C41.5821 179.587 38.0229 178.115 34.4844 176.593C32.7687 175.93 31.1025 175.131 29.5041 174.217C28.2942 173.536 27.4024 172.435 26.6566 171.285C24.8783 168.558 23.4546 165.619 21.8249 162.808C20.1483 159.934 18.5655 157.008 16.9775 154.084C15.5225 151.19 13.6034 148.421 13.1549 145.133C13.061 143.988 12.6386 142.891 12.6594 141.735C12.6725 135.181 12.662 128.626 12.6673 122.072C12.6829 120.841 13.1001 119.657 13.1288 118.425C13.1601 117.642 13.1001 116.856 13.194 116.078C13.9632 112.67 16.1509 109.605 19.1678 107.852C20.3099 107.176 21.6215 106.928 22.8888 106.613C23.4233 106.558 23.319 105.958 23.3503 105.584C23.2851 94.5731 23.3399 83.5626 23.3164 72.5521C23.2773 71.5409 23.6058 70.5768 23.7597 69.5892C24.1273 67.4201 24.7584 65.2956 25.6527 63.2863C25.7909 62.9012 26.1169 62.4401 25.7701 62.0707C24.9852 60.8369 24.1352 59.6082 23.791 58.1622C23.0713 56.0533 23.3268 53.7925 23.3607 51.6103C24.0934 48.5715 24.9983 45.5012 26.7114 42.8554C27.5093 41.5639 27.7414 40.0366 28.1508 38.5958C29.0165 35.8556 30.3776 33.2595 32.2107 31.0458C33.371 29.8539 34.5027 28.6253 35.7699 27.5433C38.1089 25.6283 40.8625 24.3447 43.5612 23.0322C46.4295 21.8901 49.3447 20.7662 52.4138 20.3156C53.5585 20.2266 54.6563 19.8126 55.8088 19.8048C56.7788 19.8048 57.6966 19.4485 58.6562 19.3542C60.3589 19.2101 62.0747 19.4249 63.7774 19.2651C64.531 18.6128 64.9612 17.6724 65.6496 16.9546ZM76.2075 16.0351C72.6612 17.7038 69.3027 20.3104 67.673 23.9779C68.8047 24.3578 70.1372 24.4416 70.9976 25.369C68.0329 25.052 65.0473 24.9498 62.0669 25.1201C56.6641 25.1489 51.1987 25.9689 46.1896 28.0699C42.9772 29.5474 39.749 31.1925 37.2119 33.7205C35.0998 36.0259 33.5822 38.8682 32.8756 41.9228C32.6383 42.9732 32.6826 44.1233 32.0907 45.0664C31.3815 46.2452 30.6149 47.39 30.0047 48.6265C29.7544 49.2343 29.5093 49.8473 29.2563 50.4551C28.7088 52.3307 28.4793 54.3296 29.0034 56.2419L29.1859 56.2603C29.478 58.2093 30.946 59.9304 32.8208 60.5199C35.3058 61.332 37.9551 61.2167 40.5235 61.4996C42.4009 61.7013 43.6369 63.4068 44.2392 65.0624C45.2587 67.9676 45.1675 71.1008 45.3422 74.1344C45.5065 76.4318 46.5077 78.9258 48.6824 79.9762C50.5755 80.9298 52.7762 80.2723 54.5911 79.4445C59.1073 77.3487 62.1347 73.2306 65.4749 69.7019C68.4944 66.3094 71.9963 63.3282 75.9467 61.0883C76.8124 60.6063 77.6912 60.1557 78.549 59.6606C79.566 59.2808 80.5099 58.7332 81.4981 58.2879C83.5711 57.2557 85.7458 56.4515 87.8683 55.5346C91.7483 53.8659 95.3728 51.5815 99.4562 50.4131C104.656 48.8597 110.066 47.7804 115.513 47.9402C118.277 47.8668 121.005 48.4274 123.748 48.6396C129.117 49.4019 134.595 49.4884 139.962 48.6553C144.04 48.0135 148.141 47.0416 151.841 45.1633C153.927 44.3171 155.883 42.9418 157.197 41.0871C158.076 39.8899 157.844 38.2369 157.153 37.0109C155.768 34.5824 153.414 32.8115 150.832 31.8344C148.877 31.1297 146.809 30.7158 144.728 30.7603C136.1 30.7105 127.427 30.3883 118.932 28.751C114.856 27.8655 110.846 26.5662 107.12 24.6695C105.55 23.7788 103.842 22.9667 102.734 21.484C100.116 18.0208 96.3376 15.4483 92.1499 14.3375C89.9205 13.7009 87.5763 13.6512 85.2791 13.7717C82.1422 13.8869 79.0471 14.7121 76.2075 16.0351ZM156.963 44.1207C154.1 46.6225 150.462 47.9506 146.892 49.0745C140.882 50.869 134.543 51.3667 128.298 51.0576C122.7 50.6646 117.135 49.3784 111.498 49.9075C106.374 50.4158 101.248 51.4479 96.481 53.4415C92.6166 55.2438 88.8044 57.1772 84.8045 58.6678C85.6858 60.0431 87.0991 61.1303 87.4355 62.8095C87.1304 61.9607 86.1239 62.0917 85.4147 61.9057C84.1891 61.7537 83.2269 60.9259 82.3534 60.1217C79.0471 61.4315 75.9389 63.2129 73.0185 65.2405C72.0798 65.94 71.115 66.6316 70.3275 67.5039C69.0263 68.5256 67.9573 69.8014 66.7761 70.9514C67.4723 71.1846 68.1685 71.423 68.8595 71.6719C69.7643 72.256 70.583 73.0027 71.1072 73.9588C72.4709 76.2013 72.4552 78.931 72.4813 81.4721C72.5022 103.511 72.4579 125.553 72.5309 147.59C72.4344 151.921 72.5152 156.256 72.4891 160.586C72.5283 163.361 72.3014 166.253 73.3731 168.88C73.8842 170.025 74.5256 171.288 75.7877 171.733C77.0184 171.99 78.2779 172.069 79.5321 172.126C83.0914 172.289 86.575 171.4 90.0769 170.918C98.8747 169.47 107.678 168.074 116.494 166.748C129.106 164.689 141.753 162.855 154.371 160.833C155.672 160.621 156.981 160.301 158.152 159.672C160.084 158.59 161.526 156.73 162.256 154.648C162.783 153.105 162.746 151.454 162.741 149.848C162.712 129.15 162.772 108.455 162.689 87.7593C162.743 80.9481 162.736 74.137 162.723 67.3258C162.72 63.9176 161.531 60.4282 159.085 58.0076C157.614 58.28 156.141 58.5315 154.665 58.7673C143.703 60.3758 132.757 62.1074 121.797 63.7211C118.233 64.0669 114.679 64.6668 111.083 64.5463C109.526 64.5149 107.941 64.507 106.45 64.0145C106.369 63.6399 106.228 63.2836 106.087 62.93C106.168 63.0059 106.332 63.1553 106.413 63.2312C107.268 63.247 108.251 63.4146 109.034 63.2129C110.596 63.5142 112.236 63.226 113.824 63.2129C118.168 62.744 122.475 61.9921 126.791 61.3294C132.791 60.3103 138.819 59.4537 144.793 58.2931C145.208 58.2905 145.617 58.2015 146.029 58.1412C150.866 57.2741 155.745 56.648 160.577 55.7337C160.866 54.9819 161.093 54.1986 161.15 53.3891H161.309C161.76 49.5146 160.465 45.6846 158.446 42.4284C157.972 43.0099 157.489 43.5836 156.963 44.1207ZM31.9108 62.1048C31.2355 63.3753 30.7087 64.7166 30.2055 66.0631C29.3685 68.7038 28.7322 71.4413 28.6827 74.2234C28.6358 87.8431 28.6253 101.463 28.6488 115.083C28.6827 115.748 28.7114 116.413 28.7401 117.081C29.4728 117.393 30.2159 117.687 30.9773 117.928C33.7309 119.023 36.5209 120.039 39.2823 121.116C45.011 123.188 50.6641 125.462 56.4007 127.502C60.4763 128.941 62.6875 133.394 62.6979 137.541C62.7552 146.859 62.6796 156.178 62.7292 165.496C62.7657 167.628 63.8791 170.114 66.1268 170.636C68.3301 171.104 70.5987 171.102 72.8281 171.403C72.0276 169.315 71.553 167.125 71.394 164.893C71.4331 136.299 71.4149 107.703 71.4175 79.1065C71.4149 77.1234 70.9559 75.0801 69.7721 73.4611C68.982 72.4316 67.6418 72.1486 66.5023 71.6823L66.4136 71.5225C65.1542 72.7669 64.0095 74.1186 62.8257 75.4363C60.4398 77.9984 57.6993 80.3535 54.4372 81.6974C52.4633 82.5331 50.1166 82.7714 48.1244 81.8729C45.835 80.846 44.3148 78.5459 43.9498 76.0913C43.4543 72.6438 43.9524 68.9919 42.5495 65.7095C42.0697 64.4625 40.9954 63.2967 39.5795 63.2836C36.9851 63.205 34.4062 62.8331 31.9108 62.1048ZM22.0726 112.549C21.1861 112.898 20.3569 113.592 20.1509 114.564C19.7519 116.206 20.6984 117.899 22.0022 118.847C23.8848 120.188 26.0934 120.94 28.2212 121.784C35.2015 124.553 42.1871 127.303 49.17 130.065C51.1518 130.848 53.1596 131.911 54.299 133.803C55.9861 136.449 55.9079 139.755 55.7019 142.773C55.7853 148.884 55.5898 155.001 55.8557 161.108C55.8766 165.828 55.827 170.549 55.8688 175.267C55.8636 176.907 56.286 178.66 57.5637 179.778C58.9274 181.169 61.0343 181.245 62.8491 181.044C66.1216 180.606 69.3549 179.914 72.6326 179.501C78.669 178.555 84.6689 177.355 90.7262 176.532C95.8839 175.616 101.065 174.843 106.238 174.028C113.946 172.629 121.709 171.597 129.435 170.324C134.713 169.37 140.006 168.519 145.31 167.712C148.452 167.07 151.659 166.832 154.809 166.229C157.977 165.65 161.179 165.244 164.326 164.537C165.661 164.246 166.981 163.701 167.974 162.729C169.672 161.04 171.307 158.931 171.244 156.4C171.314 146.356 171.267 136.312 171.294 126.269C171.291 124.259 171.374 122.245 171.247 120.238C171.129 118.412 170.472 116.61 169.301 115.2C168.23 113.935 166.621 113.301 165.033 113.003C164.83 125.805 164.882 138.613 164.874 151.418C164.822 153.466 164.42 155.551 163.401 157.349C161.927 160.057 159.27 162.111 156.261 162.769C153.041 163.513 149.716 163.586 146.478 164.207C140.804 165.229 135.088 165.978 129.411 166.984C125.398 167.618 121.383 168.236 117.357 168.783C109.357 170.117 101.31 171.162 93.3415 172.671C89.2451 173.109 85.2087 174.028 81.0966 174.311C77.9337 174.547 74.8516 173.651 71.7121 173.494C69.5687 173.242 67.3367 173.355 65.3002 172.53C63.5219 171.864 61.9261 170.557 61.1959 168.762C60.5284 167.175 60.6458 165.415 60.6327 163.73C60.6327 156.219 60.6093 148.711 60.6014 141.201C60.5936 139.189 60.7214 137.143 60.2181 135.176C59.6653 133.02 58.4268 130.916 56.4059 129.86C54.0331 128.6 51.462 127.78 48.9562 126.829C42.7972 124.445 36.6122 122.124 30.4402 119.772C28.8626 119.099 27.1808 118.624 25.7205 117.7C24.8366 117.115 24.0465 116.005 24.3985 114.904C24.8418 114.472 25.3894 114.163 25.8196 113.715C26.1012 113.147 26.0882 112.479 26.1899 111.863C24.8027 111.955 23.379 112.031 22.0726 112.549ZM18.2839 119.704C18.2448 127.222 18.2917 134.741 18.2708 142.259C18.2109 144.554 18.9723 146.862 20.3438 148.693L20.3151 148.879C21.7571 150.894 22.7766 153.162 24.0517 155.279C26.3933 159.468 28.667 163.699 31.0816 167.846C31.5301 168.597 32.0673 169.331 32.8391 169.779C35.1624 171.167 37.8143 171.838 40.221 173.054C42.9537 174.298 45.7907 175.301 48.5338 176.519C51.1961 177.596 53.7671 178.903 56.5207 179.736C55.7958 178.358 55.3681 176.834 55.3838 175.272C55.2821 163.481 55.4411 151.687 55.4072 139.896C55.3786 137.601 54.9979 135.136 53.4464 133.344C52.8988 132.758 52.3225 132.042 51.4777 131.927C50.5207 131.241 49.4308 130.777 48.3356 130.363C42.5182 128.084 36.6722 125.878 30.8808 123.536C28.5758 122.625 26.2316 121.815 23.9787 120.778C22.5733 120.107 21.16 119.277 20.2526 117.969C19.6763 117.15 19.4964 116.144 19.2956 115.185C18.4586 116.529 18.2787 118.15 18.2839 119.704Z" fill="#3F013C"/>
<path d="M132.637 86.6328C134.366 85.5692 136.697 85.6295 138.387 86.7507C141.372 89.0534 142.718 92.8126 143.424 96.399C144.066 99.5531 144.034 102.796 143.946 106C143.719 105.738 143.495 105.479 143.278 105.214C141.63 103.126 139.372 101.285 136.627 101.083C132.864 100.68 129.511 103.074 127.125 105.762C127.044 105.84 126.88 105.997 126.799 106.073C126.655 103.323 126.616 100.546 127.013 97.8162C127.477 94.9817 128.215 92.142 129.698 89.6612C130.462 88.4718 131.422 87.3716 132.637 86.6328ZM134.637 88.3408C132.752 89.1163 132.72 92.218 134.606 93.0013C136.295 93.575 137.688 91.5002 137.265 89.9781C137.114 88.7836 135.787 87.8274 134.637 88.3408Z" fill="#3F013C"/>
<path d="M92.5957 88.6002C94.4418 87.8195 96.653 88.1627 98.2175 89.4018C100.212 91.0993 101.383 93.5435 102.09 96.0296C103.229 99.705 103.297 103.603 103.015 107.412L102.742 107.192C101.094 105.717 99.2032 104.397 96.992 103.986C96.0324 103.781 95.0363 103.82 94.0742 103.983C90.2515 104.554 87.3832 107.488 85.1173 110.419C85.0443 110.501 84.9009 110.66 84.8279 110.742L84.807 110.399C84.4811 104.604 84.8044 98.4842 87.6909 93.3077C88.9243 91.3927 90.4288 89.4804 92.5957 88.6002ZM94.0038 90.8007C92.1289 91.5944 91.7248 94.6018 93.597 95.6235C95.4066 96.695 97.5787 94.6804 97.1928 92.7628C97.1484 91.2408 95.3675 90.1693 94.0038 90.8007Z" fill="#3F013C"/>
<path d="M134.076 114.21C134.942 114.511 135.74 114.98 136.608 115.276C137.745 115.669 138.939 115.842 140.113 116.091C140.019 116.206 139.831 116.442 139.735 116.557C138.574 118.098 136.898 119.117 135.148 119.848C135.539 125.8 133.954 131.78 131.059 136.954C130.992 137.075 130.856 137.311 130.788 137.431C128.439 141.327 125.153 144.764 121.028 146.752C117.122 148.662 112.512 149.028 108.332 147.884C102.259 146.092 97.7692 140.839 95.5319 135.055C94.3977 132.105 93.8735 128.972 93.4798 125.849C93.4068 124.906 93.4172 123.961 93.4511 123.018C91.6963 122.614 89.931 122.046 88.4864 120.927C88.2152 120.655 87.9779 120.348 87.738 120.049C88.7133 120.374 89.6859 120.854 90.7419 120.78C91.9179 120.691 93.0887 120.448 94.1917 120.021C95.339 119.578 96.3559 118.852 97.5189 118.444L97.3598 118.617C96.721 119.316 95.9883 119.916 95.2842 120.545C96.9791 120.867 98.7053 120.945 100.421 121.1C105.709 121.461 111.018 121.192 116.296 120.78C121.85 120.259 127.435 119.599 132.793 117.964C134.009 117.592 135.179 117.081 136.259 116.408C135.607 115.858 134.932 115.324 134.408 114.645C134.324 114.538 134.157 114.32 134.076 114.21ZM119.005 123.023C119.255 124.961 119.015 126.994 119.727 128.854C120.15 129.863 121.12 130.798 122.277 130.725C124.608 130.68 126.929 130.363 129.237 130.036C130.616 129.873 131.623 128.723 132.076 127.474C132.937 125.354 132.689 123.033 132.723 120.804C128.259 122.077 123.623 122.677 119.005 123.023ZM108.314 139.286C106.233 139.587 104.429 140.742 102.658 141.803C104.588 143.524 106.89 144.85 109.386 145.539C110.676 145.99 112.071 146.031 113.427 146.042C117.472 146.131 121.417 144.407 124.413 141.73C121.667 139.396 117.98 138.607 114.468 138.56C112.403 138.573 110.293 138.626 108.314 139.286Z" fill="#3F013C"/>
<path d="M76.2075 16.0351C79.0471 14.7121 82.1422 13.8869 85.2791 13.7717C87.5763 13.6512 89.9205 13.7009 92.1499 14.3375C96.3376 15.4483 100.116 18.0208 102.734 21.484C103.842 22.9667 105.55 23.7788 107.12 24.6695C110.846 26.5662 114.856 27.8655 118.932 28.751C127.427 30.3883 136.1 30.7105 144.728 30.7603C146.809 30.7158 148.877 31.1297 150.832 31.8344C150.871 33.042 151.495 34.0794 151.99 35.143C152.618 36.4843 151.907 38.0194 150.918 38.973C148.856 40.9666 145.982 41.7184 143.26 42.3C137.273 43.5889 131.13 42.9654 125.086 42.5803C121.372 42.5148 117.659 42.3131 113.946 42.4781C110.705 42.4965 107.503 43.0649 104.296 43.4657C95.631 44.8227 87.3051 47.9742 79.6781 52.281C76.5647 54.3479 73.4514 56.4436 70.643 58.9219C69.1463 60.2605 67.2559 61.4158 66.664 63.4644C68.192 62.8409 69.5192 61.8271 71.0185 61.1355C72.1345 60.6194 73.1984 59.9907 74.3379 59.527C75.7069 58.9821 77.154 59.5768 78.5491 59.6606C77.6912 60.1557 76.8125 60.6063 75.9468 61.0883C71.9964 63.3282 68.4944 66.3094 65.4749 69.7018C62.1347 73.2306 59.1073 77.3487 54.5911 79.4444C54.9431 78.3049 55.2612 77.126 55.9627 76.1436C56.7397 75.0408 57.6237 74.0112 58.2834 72.8297C56.3016 72.8559 55.2691 74.97 53.3969 75.3158C52.3982 75.473 51.3161 75.528 50.3617 75.1377C49.7854 74.9438 49.8454 74.2051 49.8923 73.7152C50.067 72.4682 51.3526 71.9522 52.3095 71.402C54.2678 70.4223 55.7854 68.8007 57.3003 67.2551C58.0617 66.4954 58.5598 65.5287 58.9639 64.5411C57.9392 63.9202 56.4477 63.4539 56.2625 62.076C55.934 59.4615 57.1022 56.9702 58.4294 54.7985C59.3577 53.617 60.4059 52.4827 61.7514 51.778C65.5584 49.787 69.7513 48.7654 73.8529 47.5944C76.6377 47.1333 79.4591 46.5229 81.9832 45.2052C75.5165 44.2962 68.9247 45.0768 62.6223 46.6565C59.5428 47.4503 56.5494 48.5479 53.5559 49.6141C48.3174 51.7937 43.2666 54.526 37.7543 55.9773C34.9616 56.7449 32.0334 56.5956 29.186 56.2603L29.0034 56.2419C28.4793 54.3296 28.7088 52.3307 29.2564 50.4551C29.7987 51.2567 30.1429 52.5691 31.3059 52.5849C34.0803 52.8521 36.8625 51.6732 38.8964 49.8185C40.4583 48.3567 41.5952 46.5072 42.5391 44.6001C43.4335 42.8134 43.8142 40.7963 44.8937 39.0961C45.4778 38.1792 46.1688 37.3357 46.8937 36.5262C47.4778 36.2826 48.0749 36.073 48.672 35.8608C50.2313 35.5412 51.7567 35.0828 53.3004 34.6977C55.0266 34.2549 56.8101 34.1266 58.5545 33.7808C60.3042 33.6131 62.0486 33.4035 63.7879 33.139C64.1581 33.097 64.5336 33.063 64.9065 33.0289C64.8152 32.5993 64.7266 32.1671 64.6405 31.7348C59.7149 31.2214 54.818 32.3033 50.0019 33.1992C47.0736 33.8908 44.0072 35.1273 42.1767 37.6501C40.1428 40.2776 39.8377 43.8927 37.5066 46.3264C35.9786 47.8066 33.9265 48.658 31.8691 49.0797C31.2042 49.2526 30.5862 48.9016 30.0047 48.6265C30.6149 47.39 31.3815 46.2452 32.0908 45.0664C32.6827 44.1233 32.6383 42.9732 32.8756 41.9228C33.5823 38.8682 35.0998 36.0258 37.2119 33.7205C39.7491 31.1925 42.9772 29.5474 46.1897 28.0699C51.1987 25.9689 56.6641 25.1489 62.0669 25.1201C65.0473 24.9498 68.0329 25.052 70.9977 25.369C70.1372 24.4416 68.8047 24.3578 67.6731 23.9779C69.3028 20.3104 72.6613 17.7038 76.2075 16.0351ZM89.7588 21.2875C89.4746 21.6648 88.9713 22.3354 89.4772 22.7257C90.0561 23.2654 90.9218 22.9956 91.5841 22.7729C92.7184 22.7074 93.8005 22.2699 94.7679 21.6883C95.7118 21.6936 95.9621 20.5776 95.7952 19.8231C95.4067 19.7498 95.013 19.721 94.6219 19.6974L94.4185 19.6712C92.7653 19.6869 90.8644 19.8886 89.7588 21.2875ZM63.6862 34.3493C60.3746 34.923 57.0187 35.6591 54.0253 37.2519C51.835 38.5381 49.6107 39.9449 48.1166 42.059C47.7646 42.5174 47.6577 43.099 47.5534 43.6544C46.925 44.2647 46.5365 45.0716 46.1349 45.8418C48.6173 43.2745 51.2848 40.7544 54.612 39.345C57.6523 38.064 60.9378 37.5531 64.1738 37.0528C68.3145 36.4371 72.4866 36.0913 76.6612 35.8503C83.8788 35.6329 91.1017 35.8713 98.3219 35.7534C100.619 35.625 102.979 35.5674 105.156 34.7343C105.719 34.7972 106.184 34.344 106.249 33.7965C105.206 32.9137 103.748 33.0787 102.481 32.9739C97.6961 32.911 92.9139 32.9425 88.1317 32.8901C79.9676 32.5862 71.7408 32.8796 63.6862 34.3493ZM127.998 35.0356C126.572 35.1614 125.052 35.2609 123.86 36.1595C124.895 37.4379 126.713 37.4169 128.207 37.4352C132.131 37.9068 136.095 38.0168 140.042 37.9146C141.422 37.878 142.812 37.6631 144.087 37.1156L144.363 37.1287C144.199 36.6755 144.329 35.9394 143.722 35.8294C142.118 35.2478 140.389 35.1745 138.707 35.0382C135.14 34.8653 131.563 34.7946 127.998 35.0356Z" fill="#FEF6C0"/>
<path d="M156.963 44.1208C157.489 43.5837 157.972 43.01 158.446 42.4285C160.465 45.6847 161.76 49.5147 161.309 53.3892H161.15C160.18 53.3892 159.21 53.384 158.243 53.3761C158.219 50.3635 158.324 47.3246 157.755 44.3487C157.557 44.2911 157.161 44.1784 156.963 44.1208Z" fill="#FEF6C0"/>
<path d="M145.688 47.0678C147.779 46.5544 149.688 45.4332 151.842 45.1633C148.141 47.0416 144.04 48.0135 139.962 48.6554C134.595 49.4884 129.117 49.402 123.748 48.6396C126.343 48.155 128.927 48.9566 131.526 48.823C136.275 48.5663 141.07 48.286 145.688 47.0678Z" fill="#FEF6C0"/>
<path d="M104.395 54.1252C106.476 53.5017 108.614 52.9018 110.809 53.0328C113.094 53.1323 115.537 54.023 116.851 56.0061C117.365 56.6558 117.696 57.5177 118.426 57.9552C119.839 58.1045 121.229 57.6723 122.632 57.5517C126.668 57.1483 130.736 57.1116 134.788 57.2531C138.134 57.481 141.505 57.591 144.793 58.2931C138.819 59.4536 132.791 60.3103 126.791 61.3293C122.476 61.9921 118.168 62.744 113.824 63.2129C112.236 63.226 110.596 63.5141 109.034 63.2129C110.215 63.205 111.534 63.4722 112.603 62.8409C114.064 61.2638 113.743 58.4582 112.134 57.0933C110.817 56.1057 108.903 56.2445 107.594 57.1745C106.851 57.7011 106.158 58.2931 105.521 58.9454C104.491 60.3889 104.374 62.2095 104.306 63.9228C104.212 65.0467 104.272 66.3539 103.404 67.2105C102.309 68.4287 100.387 68.6906 98.9556 67.9624C98.0247 67.3729 97.7744 66.1967 97.5293 65.1986C98.1499 62.8383 98.614 60.3574 100.009 58.3036C101.091 56.5615 102.63 55.1469 104.395 54.1252Z" fill="#FEF6C0"/>
<path d="M97.1016 55.6603C98.567 54.9766 100.264 54.0833 101.871 54.898C99.0494 57.2715 97.5136 60.9207 97.3936 64.5751C96.8486 64.7297 96.275 64.9733 95.7065 64.8057C94.3167 64.4153 93.2502 63.3884 92.0664 62.6182C91.2164 62.0262 90.2386 61.5703 89.5789 60.7451C89.5841 59.8309 90.4602 59.286 91.1251 58.8171C93.0573 57.6592 95.0807 56.6584 97.1016 55.6603Z" fill="#FEF6C0"/>
<path d="M68.8596 71.6719C69.8062 70.9515 70.651 70.0687 71.7253 69.5369C72.5519 69.7726 73.1647 70.4459 73.6653 71.1165C74.7839 72.7014 75.3159 74.6295 75.5505 76.5367C75.6887 78.2656 75.6783 79.9999 75.6835 81.7341C75.7122 89.1583 75.6705 96.5798 75.6392 104.001C75.72 112.649 75.6105 121.291 75.5271 129.936C75.4645 135.55 75.5323 141.164 75.4384 146.776C75.1803 144.572 75.2715 142.354 75.2481 140.14C74.7292 140.441 74.2129 140.74 73.6966 141.041C73.4723 140.305 73.2533 139.569 73.0551 138.827C73.1386 140.666 72.8804 142.495 72.857 144.331C72.8413 145.426 72.6979 146.511 72.531 147.59C72.458 125.554 72.5023 103.512 72.4815 81.4721C72.4554 78.931 72.4711 76.2013 71.1073 73.9589C70.5832 73.0027 69.7644 72.2561 68.8596 71.6719Z" fill="#FEF6C0"/>
<path d="M28.6827 74.2234C29.5693 74.7735 30.5158 75.4546 30.7348 76.5523C31.2068 78.7057 31.2746 80.9245 31.4884 83.1146C31.5901 93.9312 31.7074 104.751 31.5692 115.567C30.7661 115.476 29.963 115.384 29.1729 115.214C29.0425 115.179 28.7818 115.117 28.6488 115.083C28.6253 101.463 28.6358 87.8431 28.6827 74.2234Z" fill="#FEF6C0"/>
<path d="M120.841 77.4246C121.894 77.0762 123.279 77.6551 123.362 78.8785C123.74 80.7909 121.028 81.7104 119.753 80.6232C118.89 79.557 119.558 77.7887 120.841 77.4246Z" fill="#FEF6C0"/>
<path d="M134.637 88.3409C135.787 87.8275 137.114 88.7837 137.265 89.9782C137.688 91.5003 136.295 93.5751 134.606 93.0013C132.72 92.2181 132.752 89.1164 134.637 88.3409Z" fill="#FEF6C0"/>
<path d="M94.004 90.8007C95.3677 90.1694 97.1487 91.2408 97.193 92.7628C97.5789 94.6805 95.4068 96.695 93.5972 95.6235C91.725 94.6019 92.1292 91.5945 94.004 90.8007Z" fill="#FEF6C0"/>
<path d="M157.051 96.0087C158.167 95.8096 159.236 97.0697 158.702 98.1202C158.248 99.2545 156.454 99.8701 155.711 98.6991C154.981 97.6251 155.969 96.289 157.051 96.0087Z" fill="#FEF6C0"/>
<path d="M18.2839 119.704C18.2787 118.15 18.4586 116.529 19.2956 115.185C19.4964 116.144 19.6763 117.15 20.2526 117.97C21.16 119.277 22.5733 120.107 23.9787 120.778C26.2317 121.815 28.5758 122.625 30.8809 123.536C36.6722 125.878 42.5183 128.084 48.3357 130.363C49.4308 130.777 50.5208 131.241 51.4777 131.927C49.7255 131.67 48.0671 131.01 46.3852 130.484C40.3175 128.511 34.1507 126.85 28.1325 124.715C25.5537 123.775 22.8966 123.044 20.4012 121.886C20.3699 129.287 20.4012 136.687 20.4064 144.085C20.3804 145.62 20.5733 147.166 20.3439 148.693C18.9723 146.862 18.2109 144.554 18.2709 142.259C18.2917 134.741 18.2448 127.222 18.2839 119.704Z" fill="#FEF6C0"/>
<path d="M60.8519 117.736C61.8063 117.503 62.9066 117.702 63.6002 118.436C64.4659 119.392 64.0879 121.103 62.9353 121.655C61.8923 122.153 60.6616 122.213 59.5481 121.936C58.4869 121.674 57.9784 120.343 58.3148 119.366C58.8572 118.473 59.8715 117.98 60.8519 117.736Z" fill="#FEF6C0"/>
<path d="M119.005 123.023C123.623 122.677 128.259 122.077 132.723 120.804C132.689 123.033 132.937 125.354 132.076 127.474C131.623 128.723 130.616 129.873 129.237 130.036C126.929 130.363 124.608 130.68 122.277 130.725C121.12 130.798 120.15 129.863 119.727 128.854C119.015 126.994 119.255 124.961 119.005 123.023Z" fill="#FEF6C0"/>
<path d="M150.055 138.977C150.788 138.568 151.638 138.827 152.41 138.961C152.475 139.645 152.741 140.394 152.376 141.038C151.899 142.078 150.35 142.374 149.523 141.607C148.944 140.813 149.124 139.432 150.055 138.977Z" fill="#FEF6C0"/>
<path d="M102.658 141.803C104.429 140.742 106.233 139.587 108.314 139.286C109.508 139.938 110.726 140.538 111.975 141.08C110.966 142.107 109.626 142.705 108.585 143.687C107.923 144.365 108.971 145.047 109.386 145.539C106.89 144.85 104.588 143.525 102.658 141.803Z" fill="#FEF6C0"/>
<path d="M79.9258 159.932C80.9115 159.237 82.3169 160.207 82.2179 161.362C82.0823 162.465 80.6299 162.97 79.7355 162.462C78.8959 161.807 78.9219 160.416 79.9258 159.932Z" fill="#FEF6C0"/>
<path d="M89.759 21.2875C90.8646 19.8886 92.7654 19.6869 94.4186 19.6711C92.7107 20.182 91.2296 21.2587 90.1449 22.6707C90.6247 22.7047 91.1018 22.7466 91.5842 22.7728C90.9219 22.9955 90.0562 23.2653 89.4773 22.7257C88.9715 22.3354 89.4747 21.6647 89.759 21.2875Z" fill="#FED264"/>
<path d="M94.622 19.6973C95.0132 19.7208 95.4069 19.7497 95.7954 19.823C95.9623 20.5775 95.712 21.6935 94.7681 21.6882C93.6573 21.8375 92.5386 21.9319 91.4226 22.0183C92.6716 21.1617 94.0771 20.5984 95.4486 19.9802C95.1748 19.8833 94.8984 19.789 94.622 19.6973Z" fill="#FED264"/>
<path d="M50.0021 33.1993C54.8182 32.3034 59.7151 31.2214 64.6407 31.7349C64.7268 32.1671 64.8154 32.5994 64.9067 33.029C64.5338 33.0631 64.1583 33.0971 63.7881 33.139C64.0149 33.0526 64.2444 32.9635 64.4712 32.8718C62.3226 32.7277 60.1662 33.0657 58.135 33.7625C58.2393 33.7678 58.4505 33.7782 58.5548 33.7809C56.8103 34.1267 55.0268 34.255 53.3006 34.6977C51.7569 35.0828 50.2315 35.5413 48.6722 35.8609C48.8834 35.7116 49.0894 35.5622 49.298 35.4077C47.5562 35.7823 45.744 36.1333 44.2212 37.1131C42.92 37.9723 42.3125 39.4813 41.7466 40.8723C42.4429 40.0078 43.0504 39.0674 43.8327 38.2736C44.6723 37.4222 45.7987 36.9585 46.8939 36.5263C46.169 37.3358 45.478 38.1793 44.8939 39.0962C43.8144 40.7964 43.4337 42.8135 42.5393 44.6001C41.5954 46.5073 40.4585 48.3568 38.8966 49.8185C36.8627 51.6733 34.0805 52.8521 31.3061 52.5849C30.1432 52.5692 29.799 51.2567 29.2566 50.4551C29.5095 49.8474 29.7546 49.2344 30.005 48.6266C30.5864 48.9017 31.2044 49.2527 31.8693 49.0798C33.9267 48.658 35.9788 47.8066 37.5068 46.3265C39.8379 43.8928 40.143 40.2777 42.1769 37.6501C44.0074 35.1274 47.0738 33.8909 50.0021 33.1993ZM39.306 44.9721C38.1665 47.1334 36.3412 49.0431 34.0023 49.8526C32.6803 50.3268 31.2774 50.0203 29.9267 49.8788C30.6751 51.2882 32.456 51.1729 33.7989 50.9398C36.1587 50.3792 38.0883 48.658 39.4181 46.6775C40.4976 45.0691 41.4781 43.2667 41.5068 41.2758C40.4012 42.2555 40.0048 43.7225 39.306 44.9721Z" fill="#FED264"/>
<path d="M150.832 31.8342C153.414 32.8114 155.768 34.5823 157.153 37.0107C157.844 38.2367 158.076 39.8897 157.197 41.0869C155.883 42.9417 153.928 44.317 151.842 45.1632C149.688 45.433 147.779 46.5542 145.688 47.0677C141.07 48.2858 136.275 48.5661 131.526 48.8229C128.927 48.9565 126.343 48.1548 123.748 48.6395C121.005 48.4273 118.277 47.8667 115.513 47.94C110.066 47.7802 104.656 48.8595 99.4563 50.413C95.3729 51.5814 91.7485 53.8657 87.8685 55.5345C85.7459 56.4514 83.5713 57.2556 81.4983 58.2878C80.51 58.7331 79.5661 59.2806 78.5492 59.6605C77.1541 59.5767 75.707 58.982 74.338 59.5269C73.1985 59.9906 72.1346 60.6193 71.0186 61.1354C69.5193 61.827 68.1921 62.8408 66.6641 63.4643C67.256 61.4157 69.1464 60.2604 70.6432 58.9217C73.4515 56.4435 76.5648 54.3478 79.6782 52.2808C87.3052 47.9741 95.6311 44.8226 104.296 43.4656C107.503 43.0648 110.705 42.4963 113.946 42.478C117.659 42.313 121.373 42.5147 125.086 42.5802C131.13 42.9653 137.273 43.5887 143.26 42.2999C145.982 41.7183 148.856 40.9664 150.918 38.9729C151.907 38.0193 152.619 36.4842 151.99 35.1429C151.495 34.0793 150.872 33.0419 150.832 31.8342Z" fill="#FED264"/>
<path d="M63.6862 34.3492C71.7409 32.8796 79.9676 32.5862 88.1318 32.8901C92.914 32.9425 97.6962 32.911 102.481 32.9739C103.748 33.0787 105.206 32.9136 106.249 33.7965C106.184 34.344 105.72 34.7972 105.156 34.7343C103.036 34.5693 100.937 34.978 98.8227 34.957C91.871 35.0461 84.9193 34.8837 77.9677 35.0173C73.1255 35.2792 68.3068 35.8844 63.5246 36.6939C60.4529 37.223 57.3369 37.7679 54.4817 39.0778C51.9237 40.1833 49.6786 41.8756 47.5535 43.6543C47.6578 43.099 47.7647 42.5174 48.1167 42.059C49.6108 39.9449 51.835 38.5381 54.0254 37.2518C57.0188 35.6591 60.3747 34.9229 63.6862 34.3492Z" fill="#FED264"/>
<path d="M127.998 35.0355C131.563 34.7945 135.14 34.8652 138.707 35.0381C140.389 35.1743 142.118 35.2477 143.722 35.8292C144.329 35.9393 144.199 36.6754 144.363 37.1286L144.087 37.1155C142.561 36.995 141.033 37.1181 139.516 37.2543C135.748 37.3801 131.97 37.1391 128.207 37.4351C126.713 37.4168 124.895 37.4377 123.86 36.1593C125.052 35.2608 126.572 35.1612 127.998 35.0355Z" fill="#FED264"/>
<path d="M146.893 49.0744C150.462 47.9506 154.1 46.6224 156.963 44.1206C157.161 44.1782 157.557 44.2909 157.755 44.3485C158.324 47.3245 158.22 50.3633 158.243 53.3759C159.21 53.3838 160.18 53.389 161.15 53.389C161.093 54.1985 160.866 54.9818 160.577 55.7337C155.745 56.6479 150.866 57.274 146.029 58.1411C145.617 58.2014 145.208 58.2905 144.793 58.2931C141.505 57.591 138.134 57.481 134.788 57.2531C130.736 57.1116 126.669 57.1483 122.632 57.5517C121.229 57.6722 119.839 58.1045 118.426 57.9551C117.696 57.5177 117.365 56.6558 116.851 56.0061C115.537 54.023 113.094 53.1323 110.81 53.0328C108.614 52.9018 106.476 53.5017 104.395 54.1252C103.535 54.3059 102.661 54.4972 101.871 54.898C100.265 54.0833 98.5672 54.9766 97.1018 55.6603C95.081 56.6584 93.0575 57.6591 91.1253 58.817C90.4604 59.2859 89.5843 59.8308 89.5791 60.7451C90.2388 61.5703 91.2166 62.0261 92.0666 62.6182C93.2505 63.3884 94.3169 64.4153 95.7068 64.8056C96.2752 64.9733 96.8489 64.7296 97.3938 64.5751C97.3808 64.9733 97.3782 65.3688 97.3756 65.767C97.4147 65.6256 97.4903 65.34 97.5294 65.1986C97.7745 66.1967 98.0248 67.3729 98.9557 67.9623C100.387 68.6906 102.309 68.4286 103.404 67.2105C104.272 66.3538 104.213 65.0466 104.306 63.9228C104.374 62.2095 104.492 60.3888 105.521 58.9454C105.422 60.2945 105.508 61.6882 106.087 62.9299C106.228 63.2836 106.369 63.6398 106.45 64.0145C106.718 65.6491 106.598 67.3965 105.808 68.8792C104.846 70.1707 103.636 71.3653 102.085 71.8945C99.2269 72.9109 95.7172 71.8368 94.0692 69.2433C93.3287 67.9387 92.8906 66.4874 92.1501 65.1855C92.2492 66.0866 92.3743 66.9878 92.4969 67.889C91.2661 67.496 89.9337 67.1502 89.0002 66.194C88.0954 65.285 87.8216 63.9856 87.4357 62.8094C87.0993 61.1302 85.686 60.043 84.8047 58.6677C88.8046 57.1771 92.6168 55.2438 96.4812 53.4414C101.248 51.4479 106.374 50.4157 111.498 49.9075C117.135 49.3783 122.7 50.6646 128.298 51.0575C134.543 51.3666 140.882 50.8689 146.893 49.0744Z" fill="#FED264"/>
<path d="M62.6224 46.6564C68.9248 45.0768 75.5166 44.2961 81.9832 45.2051C79.4592 46.5228 76.6378 47.1332 73.853 47.5943C70.6796 47.7672 67.5793 48.6343 64.6249 49.7765C63.1439 50.3869 61.6419 51.0234 60.3773 52.0294C59.4699 52.7393 58.9353 53.7872 58.4295 54.7984C57.1022 56.9701 55.934 59.4614 56.2626 62.0759C56.4477 63.4538 57.9392 63.9201 58.964 64.541C58.5598 65.5286 58.0618 66.4953 57.3004 67.255C55.7854 68.8006 54.2678 70.4222 52.3096 71.4019C51.3526 71.9521 50.0671 72.4681 49.8924 73.7151C49.8455 74.205 49.7855 74.9437 50.3618 75.1376C51.3161 75.5279 52.3982 75.4729 53.3969 75.3157C55.2691 74.9699 56.3017 72.8559 58.2834 72.8297C57.6237 74.0111 56.7398 75.0407 55.9627 76.1436C55.2613 77.1259 54.9432 78.3048 54.5912 79.4444C52.7763 80.2722 50.5756 80.9297 48.6825 79.9761C46.5078 78.9257 45.5065 76.4317 45.3423 74.1343C45.1676 71.1007 45.2588 67.9675 44.2393 65.0623C43.637 63.4067 42.401 61.7013 40.5236 61.4995C37.9551 61.2166 35.3059 61.3319 32.8209 60.5198C30.9461 59.9304 29.4781 58.2092 29.186 56.2602C32.0335 56.5955 34.9617 56.7448 37.7544 55.9773C43.2667 54.5259 48.3175 51.7936 53.556 49.614C56.5494 48.5478 59.5429 47.4502 62.6224 46.6564Z" fill="#FED264"/>
<path d="M107.594 57.1744C108.903 56.2444 110.817 56.1056 112.134 57.0932C113.743 58.4581 114.064 61.2637 112.604 62.8408C111.534 63.4721 110.215 63.2049 109.034 63.2128C109.282 61.8794 109.759 60.6062 110.095 59.2937C110.155 58.8667 110.343 58.3114 109.957 57.9865C109.295 57.4442 108.387 57.3945 107.594 57.1744Z" fill="#FED264"/>
<path d="M82.656 64.9706C83.4539 64.8056 84.2778 64.5043 85.0992 64.6825C85.9727 65.0021 86.6429 65.6937 87.3339 66.2962C88.1213 67.0533 89.0209 67.8025 89.3547 68.8871C88.5985 69.6913 87.386 69.6127 86.3899 69.8537C82.802 70.3646 79.6208 72.2298 76.5648 74.0714C75.6391 74.5272 75.5635 75.6249 75.5504 76.5365C75.3158 74.6294 74.7838 72.7013 73.6652 71.1164C73.1646 70.4458 72.5518 69.7725 71.7252 69.5367C70.6509 70.0685 69.8061 70.9514 68.8595 71.6718C68.1685 71.4229 67.4723 71.1845 66.7761 70.9514C67.9573 69.8013 69.0264 68.5255 70.3276 67.5039C70.1398 67.8313 69.9625 68.164 69.7878 68.4993C70.4997 68.7954 71.2715 69.4529 72.0668 69.0416C73.368 68.4627 74.4866 67.5353 75.8138 67.0087C78.0198 66.0997 80.3587 65.581 82.656 64.9706Z" fill="#FED264"/>
<path d="M30.2057 66.063C30.6176 66.5843 30.9853 67.2052 31.6294 67.4593C32.2395 67.771 32.9853 67.8575 33.4937 68.3447C32.7923 69.9296 31.911 71.4805 31.7623 73.2488C31.4468 76.5286 31.8953 79.8347 31.4886 83.1145C31.2747 80.9244 31.2069 78.7056 30.735 76.5522C30.516 75.4545 29.5694 74.7734 28.6829 74.2233C28.7324 71.4412 29.3686 68.7036 30.2057 66.063Z" fill="#FED264"/>
<path d="M70.1087 75.198C69.3081 73.6183 67.2039 73.3354 66.5024 71.6824C67.6419 72.1487 68.9822 72.4316 69.7723 73.4611C70.9561 75.0801 71.415 77.1234 71.4176 79.1065C71.415 107.703 71.4333 136.299 71.3942 164.893C70.8179 162.088 71.2768 159.227 71.2429 156.395C71.2273 148.536 71.3003 140.677 71.2951 132.818C71.3264 116.225 71.1647 99.6344 71.2638 83.0439C71.2221 80.4111 71.5089 77.5583 70.1087 75.198Z" fill="#FED264"/>
<path d="M138.387 86.7507C139.837 87.128 140.851 88.3252 141.633 89.5381C142.439 90.785 142.814 92.2416 143.305 93.63C144.155 95.8882 144.011 98.3454 144.311 100.706C144.366 102.545 145.096 104.588 143.933 106.236L143.946 106C144.035 102.796 144.066 99.5531 143.424 96.399C142.718 92.8127 141.372 89.0534 138.387 86.7507Z" fill="#FED264"/>
<path d="M98.2178 89.4019C99.4198 89.656 100.489 90.4235 101.021 91.55C102.395 94.1723 102.679 97.1561 103.326 100.001C103.602 102.537 103.881 105.219 102.992 107.666L103.016 107.412C103.297 103.603 103.229 99.7051 102.09 96.0297C101.383 93.5436 100.213 91.0994 98.2178 89.4019Z" fill="#FED264"/>
<path d="M127.928 92.6266C128.23 91.4975 128.668 90.3187 129.698 89.6611C128.215 92.142 127.477 94.9817 127.013 97.8162C126.791 96.0243 127.487 94.3242 127.928 92.6266Z" fill="#FED264"/>
<path d="M86.6352 94.602C86.8307 94.0597 87.2506 93.6589 87.6912 93.3079C84.8047 98.4844 84.4814 104.604 84.8073 110.399C84.4057 109.089 84.5674 107.706 84.5518 106.359C84.5935 103.724 84.4318 101.018 85.2584 98.4739C85.686 97.1719 86.1163 95.8699 86.6352 94.602Z" fill="#FED264"/>
<path d="M127.125 105.762C129.511 103.074 132.864 100.68 136.627 101.083C139.372 101.285 141.63 103.126 143.278 105.214C141.73 104.483 140.647 103.04 139.049 102.395C136.322 101.057 133.033 101.816 130.603 103.449C129.438 104.213 128.601 105.565 127.125 105.762Z" fill="#FED264"/>
<path d="M85.1174 110.42C87.3834 107.488 90.2517 104.554 94.0743 103.983C94.2255 103.978 94.528 103.97 94.6792 103.967C93.1173 104.942 91.1643 105.167 89.7693 106.427C88.6193 107.454 87.6311 108.649 86.5151 109.715C86.137 110.1 85.6129 110.26 85.1174 110.42Z" fill="#FED264"/>
<path d="M96.9922 103.986C99.2034 104.397 101.094 105.717 102.742 107.192C101.879 107.038 101.096 106.629 100.445 106.045C99.4224 105.151 98.1108 104.73 96.9922 103.986Z" fill="#FED264"/>
<path d="M134.408 114.645C134.932 115.324 135.607 115.858 136.259 116.408C135.179 117.081 134.009 117.592 132.793 117.964C133.367 117.487 134.009 117.068 134.462 116.466C134.611 115.868 134.454 115.245 134.408 114.645Z" fill="#FED264"/>
<path d="M28.6489 115.083C28.7819 115.117 29.0427 115.179 29.173 115.214C29.4729 116.285 30.07 117.267 30.9774 117.927C30.216 117.686 29.4729 117.393 28.7402 117.081C28.7115 116.413 28.6828 115.748 28.6489 115.083Z" fill="#FED264"/>
<path d="M135.148 119.848C136.898 119.117 138.574 118.098 139.735 116.557C139.518 117.17 139.359 117.844 138.898 118.328C138.035 119.153 136.794 119.484 136.024 120.424C135.352 121.254 135.516 122.397 135.492 123.395C135.602 126.02 134.697 128.529 134.074 131.042C133.534 133.184 132.754 135.451 131.06 136.954C133.954 131.78 135.539 125.8 135.148 119.848Z" fill="#FED264"/>
<path d="M95.2842 120.545C95.9882 119.916 96.7209 119.316 97.3598 118.616C98.1264 119.717 99.1303 120.668 100.421 121.1C98.7053 120.945 96.9791 120.867 95.2842 120.545Z" fill="#FED264"/>
<path d="M88.4863 120.927C89.9309 122.046 91.6962 122.614 93.4511 123.018C93.4172 123.961 93.4067 124.906 93.4797 125.849L93.4902 126.083C93.2685 125.344 93.1799 124.561 92.8722 123.853C91.4824 122.774 89.412 122.575 88.4863 120.927Z" fill="#FED264"/>
<path d="M95.532 135.055C97.7692 140.839 102.259 146.092 108.332 147.884C112.512 149.028 117.122 148.662 121.028 146.752C125.153 144.763 128.439 141.326 130.788 137.431C130.369 139.003 129.513 140.436 128.541 141.725C127.213 143.097 125.878 144.517 124.215 145.484C122.598 146.432 121.015 147.501 119.198 148.028C115.56 149.167 111.639 149.005 107.946 148.24C105.811 147.522 103.425 146.988 101.863 145.225C99.6154 142.618 97.1773 140.053 95.8501 136.815C95.6128 136.26 95.5607 135.65 95.532 135.055Z" fill="#FED264"/>
<path d="M108.314 139.286C110.293 138.626 112.403 138.573 114.468 138.56C117.98 138.607 121.667 139.396 124.413 141.73C121.417 144.407 117.472 146.131 113.427 146.042C112.071 146.031 110.676 145.989 109.386 145.539C108.971 145.046 107.923 144.365 108.585 143.687C109.626 142.704 110.966 142.107 111.975 141.08C110.726 140.538 109.508 139.938 108.314 139.286Z" fill="#FED264"/>
<path d="M73.0551 138.827C73.2533 139.569 73.4724 140.305 73.6966 141.041C74.2129 140.74 74.7292 140.441 75.2481 140.14C75.2715 142.353 75.1803 144.572 75.4384 146.776C75.5245 149.982 75.4332 153.188 75.4462 156.395C75.4645 159.709 75.3837 163.044 75.9052 166.329C75.999 167.128 76.1737 167.958 75.9782 168.757C75.4567 169.108 74.87 169.336 74.3041 169.598C74.7709 170.326 75.2403 171.057 75.7878 171.733C74.5258 171.288 73.8843 170.025 73.3733 168.88C72.3016 166.253 72.5284 163.361 72.4893 160.586C72.5154 156.256 72.4346 151.921 72.531 147.59C72.6979 146.511 72.8413 145.426 72.857 144.331C72.8804 142.495 73.1386 140.666 73.0551 138.827Z" fill="#FED264"/>
<path d="M94.4188 19.6711L94.6221 19.6973C94.8985 19.789 95.1749 19.8833 95.4487 19.9803C94.0772 20.5985 92.6717 21.1617 91.4227 22.0184C92.5387 21.9319 93.6574 21.8376 94.7682 21.6883C93.8008 22.2699 92.7187 22.7074 91.5844 22.7728C91.102 22.7466 90.6248 22.7047 90.145 22.6707C91.2298 21.2587 92.7108 20.182 94.4188 19.6711Z" fill="#FCBF09"/>
<path d="M39.306 44.972C40.0049 43.7224 40.4012 42.2554 41.5068 41.2756C41.4781 43.2666 40.4977 45.0689 39.4182 46.6774C38.0883 48.6579 36.1587 50.379 33.7989 50.9396C32.4561 51.1728 30.6751 51.2881 29.9268 49.8787C31.2775 50.0201 32.6803 50.3266 34.0023 49.8525C36.3413 49.043 38.1665 47.1332 39.306 44.972Z" fill="#FCBF09"/>
<path d="M101.871 54.898C102.661 54.4972 103.534 54.306 104.395 54.1252C102.63 55.1469 101.091 56.5615 100.009 58.3036C98.6141 60.3575 98.1499 62.8383 97.5293 65.1986C97.4902 65.3401 97.4146 65.6256 97.3755 65.7671C97.3781 65.3689 97.3807 64.9733 97.3937 64.5752C97.5137 60.9207 99.0495 57.2715 101.871 54.898Z" fill="#FCBF09"/>
<path d="M105.522 58.9455C106.158 58.2932 106.851 57.7011 107.595 57.1746C108.387 57.3946 109.295 57.4444 109.957 57.9867C110.343 58.3115 110.155 58.8669 110.095 59.2939C109.759 60.6063 109.282 61.8795 109.034 63.2129C108.252 63.4146 107.269 63.247 106.413 63.2313C106.333 63.1553 106.168 63.006 106.087 62.93C105.509 61.6883 105.423 60.2946 105.522 58.9455Z" fill="#FCBF09"/>
<path d="M154.665 58.7673C156.141 58.5315 157.615 58.28 159.085 58.0076C161.531 60.4282 162.72 63.9176 162.723 67.3258C162.736 74.1369 162.744 80.9481 162.689 87.7593C162.772 108.455 162.712 129.15 162.741 149.848C162.746 151.454 162.783 153.105 162.256 154.648C161.526 156.73 160.084 158.59 158.152 159.672C156.981 160.301 155.672 160.62 154.371 160.833C141.753 162.855 129.106 164.689 116.494 166.748C107.678 168.073 98.8748 169.47 90.077 170.918C86.5751 171.4 83.0914 172.289 79.5322 172.126C78.2779 172.068 77.0185 171.99 75.7878 171.733C75.2402 171.057 74.7708 170.326 74.3041 169.598C74.8699 169.336 75.4566 169.108 75.9781 168.757C76.1737 167.958 75.999 167.128 75.9051 166.329C75.3836 163.044 75.4644 159.709 75.4462 156.395C75.4331 153.188 75.5244 149.982 75.4383 146.775C75.5322 141.164 75.4644 135.55 75.527 129.936C75.6104 121.291 75.72 112.649 75.6391 104.001C75.6704 96.5797 75.7121 89.1582 75.6835 81.734C75.6782 79.9998 75.6887 78.2656 75.5505 76.5366C75.5635 75.6249 75.6391 74.5273 76.5648 74.0715C79.6208 72.2298 82.802 70.3646 86.39 69.8538C87.386 69.6128 88.5985 69.6913 89.3547 68.8871C89.021 67.8026 88.1214 67.0533 87.3339 66.2962C86.6429 65.6937 85.9728 65.0021 85.0992 64.6825C84.2779 64.5044 83.4539 64.8056 82.656 64.9707C80.3587 65.5811 78.0198 66.0998 75.8138 67.0088C74.4866 67.5353 73.368 68.4627 72.0668 69.0417C71.2715 69.453 70.4997 68.7954 69.7878 68.4994C69.9625 68.1641 70.1399 67.8314 70.3276 67.5039C71.1151 66.6316 72.0799 65.94 73.0186 65.2405C75.939 63.2129 79.0472 61.4315 82.3535 60.1217C83.227 60.9259 84.1892 61.7537 85.4147 61.9057C86.124 62.0917 87.1305 61.9607 87.4356 62.8094C87.8215 63.9857 88.0953 65.285 89.0001 66.1941C89.9336 67.1503 91.266 67.4961 92.4968 67.889C92.3742 66.9878 92.2491 66.0867 92.15 65.1855C92.8905 66.4875 93.3286 67.9388 94.0691 69.2434C95.7171 71.8369 99.2268 72.9109 102.085 71.8945C103.636 71.3653 104.846 70.1707 105.808 68.8792C105.946 69.3246 106.087 69.7726 106.228 70.2205C108.682 69.2801 110.937 67.7292 113.589 67.386C115.13 67.0926 116.799 67.3153 118.241 66.6001C119.511 65.7487 120.356 64.3393 121.798 63.7211C132.757 62.1074 143.703 60.3758 154.665 58.7673ZM120.841 77.4246C119.558 77.7888 118.89 79.5571 119.753 80.6233C121.028 81.7104 123.74 80.7909 123.362 78.8786C123.279 77.6552 121.894 77.0762 120.841 77.4246ZM132.637 86.6328C131.422 87.3716 130.462 88.4718 129.698 89.6612C128.668 90.3187 128.23 91.4976 127.928 92.6266C127.487 94.3242 126.791 96.0244 127.013 97.8162C126.616 100.546 126.655 103.323 126.799 106.073C126.88 105.998 127.044 105.84 127.125 105.762C128.601 105.565 129.438 104.214 130.603 103.449C133.033 101.816 136.321 101.057 139.049 102.395C140.647 103.04 141.729 104.483 143.278 105.214C143.495 105.479 143.719 105.738 143.946 106L143.933 106.236C145.096 104.588 144.366 102.545 144.311 100.706C144.011 98.3454 144.155 95.8882 143.304 93.63C142.814 92.2416 142.439 90.785 141.633 89.5381C140.851 88.3251 139.836 87.1279 138.387 86.7507C136.697 85.6295 134.366 85.5692 132.637 86.6328ZM92.5959 88.6002C90.429 89.4804 88.9245 91.3928 87.6911 93.3078C87.2504 93.6588 86.8306 94.0596 86.6351 94.6019C86.1162 95.8698 85.6859 97.1718 85.2583 98.4738C84.4317 101.017 84.5934 103.724 84.5517 106.359C84.5673 107.706 84.4056 109.089 84.8072 110.399L84.8281 110.742C84.9011 110.661 85.0445 110.501 85.1175 110.42C85.6129 110.26 86.137 110.1 86.5151 109.715C87.6311 108.649 88.6194 107.454 89.7693 106.427C91.1643 105.167 93.1174 104.942 94.6793 103.967C94.5281 103.97 94.2256 103.978 94.0743 103.983C95.0365 103.821 96.0326 103.781 96.9922 103.986C98.1108 104.73 99.4224 105.151 100.445 106.045C101.096 106.629 101.879 107.038 102.742 107.192L103.016 107.412L102.992 107.666C103.881 105.219 103.602 102.537 103.326 100.001C102.679 97.1561 102.395 94.1723 101.021 91.55C100.489 90.4235 99.4198 89.6559 98.2177 89.4018C96.6532 88.1627 94.442 87.8195 92.5959 88.6002ZM157.051 96.0087C155.969 96.289 154.981 97.625 155.711 98.6991C156.454 99.8701 158.248 99.2544 158.702 98.1201C159.236 97.0696 158.167 95.8096 157.051 96.0087ZM134.076 114.21C134.157 114.32 134.324 114.538 134.408 114.645C134.455 115.245 134.611 115.868 134.462 116.466C134.009 117.068 133.367 117.487 132.794 117.964C127.435 119.599 121.85 120.259 116.296 120.78C111.018 121.192 105.709 121.461 100.421 121.1C99.1303 120.668 98.1264 119.717 97.3598 118.617L97.5189 118.444C96.3559 118.852 95.339 119.578 94.1917 120.021C93.0887 120.448 91.9179 120.691 90.7419 120.78C89.6859 120.854 88.7133 120.374 87.7381 120.049C87.9779 120.348 88.2152 120.655 88.4864 120.927C89.4121 122.575 91.4825 122.774 92.8723 123.853C93.18 124.561 93.2686 125.344 93.4903 126.083L93.4798 125.849C93.8736 128.972 94.3977 132.105 95.5319 135.055C95.5606 135.65 95.6128 136.26 95.8501 136.815C97.1773 140.053 99.6153 142.618 101.863 145.225C103.425 146.988 105.811 147.522 107.946 148.24C111.639 149.005 115.56 149.167 119.198 148.028C121.015 147.501 122.598 146.432 124.215 145.484C125.878 144.517 127.213 143.097 128.541 141.725C129.513 140.436 130.369 139.003 130.788 137.431C130.856 137.311 130.992 137.075 131.06 136.954C132.754 135.451 133.534 133.185 134.074 131.042C134.697 128.529 135.602 126.02 135.492 123.395C135.516 122.397 135.351 121.255 136.024 120.424C136.793 119.484 138.035 119.154 138.898 118.328C139.359 117.844 139.518 117.17 139.735 116.557C139.831 116.442 140.019 116.206 140.113 116.091C138.939 115.842 137.745 115.669 136.608 115.276C135.74 114.98 134.942 114.511 134.076 114.21ZM150.055 138.977C149.124 139.432 148.945 140.813 149.523 141.607C150.35 142.374 151.899 142.078 152.376 141.038C152.741 140.394 152.475 139.645 152.41 138.961C151.638 138.827 150.788 138.568 150.055 138.977ZM79.9259 159.931C78.922 160.416 78.8959 161.807 79.7356 162.462C80.6299 162.97 82.0823 162.465 82.2179 161.362C82.317 160.207 80.9115 159.237 79.9259 159.931Z" fill="#FCBF09"/>
<path d="M31.911 62.1047C34.4064 62.833 36.9852 63.205 39.5797 63.2836C40.9956 63.2967 42.0699 64.4624 42.5497 65.7094C43.9526 68.9919 43.4545 72.6437 43.95 76.0912C44.315 78.5458 45.8352 80.8459 48.1246 81.8728C50.1168 82.7714 52.4635 82.533 54.4374 81.6973C57.6994 80.3534 60.44 77.9983 62.8258 75.4363C64.0097 74.1186 65.1544 72.7668 66.4138 71.5225L66.5025 71.6823C67.2039 73.3353 69.3081 73.6182 70.1087 75.1979C71.5089 77.5582 71.2221 80.4111 71.2638 83.0438C71.1647 99.6343 71.3264 116.225 71.2951 132.818C71.3003 140.677 71.2273 148.536 71.2429 156.395C71.2768 159.227 70.8179 162.087 71.3942 164.893C71.5532 167.125 72.0278 169.315 72.8283 171.403C70.5989 171.102 68.3303 171.104 66.127 170.635C63.8793 170.114 62.7659 167.628 62.7294 165.496C62.6798 156.177 62.7554 146.859 62.6981 137.541C62.6876 133.394 60.4765 128.941 56.4009 127.502C50.6643 125.462 45.0112 123.188 39.2825 121.116C36.5211 120.039 33.7311 119.023 30.9775 117.928C30.0701 117.267 29.473 116.285 29.1731 115.214C29.9632 115.384 30.7663 115.475 31.5694 115.567C31.7076 104.751 31.5903 93.9312 31.4886 83.1146C31.8954 79.8347 31.4469 76.5287 31.7624 73.2489C31.911 71.4806 32.7923 69.9297 33.4938 68.3448C32.9853 67.8576 32.2395 67.7711 31.6294 67.4594C30.9853 67.2053 30.6177 66.5844 30.2057 66.0631C30.7089 64.7166 31.2356 63.3753 31.911 62.1047ZM60.8519 117.736C59.8715 117.98 58.8572 118.472 58.3148 119.366C57.9784 120.343 58.4869 121.674 59.5482 121.936C60.6616 122.213 61.8923 122.153 62.9354 121.655C64.0879 121.103 64.466 119.392 63.6003 118.436C62.9067 117.702 61.8063 117.503 60.8519 117.736Z" fill="#FCBF09"/>
<path d="M58.135 33.7625C60.1663 33.0657 62.3227 32.7278 64.4713 32.8718C64.2444 32.9635 64.015 33.0526 63.7881 33.139C62.0489 33.4036 60.3045 33.6132 58.5548 33.7809C58.4505 33.7782 58.2393 33.7678 58.135 33.7625Z" fill="#DD2326"/>
<path d="M98.8227 34.9571C100.937 34.9781 103.036 34.5694 105.156 34.7344C102.979 35.5675 100.619 35.6251 98.3221 35.7535C91.1018 35.8714 83.879 35.633 76.6613 35.8504C72.4867 36.0914 68.3146 36.4372 64.1739 37.0528C60.9379 37.5532 57.6525 38.064 54.6121 39.3451C51.2849 40.7545 48.6174 43.2746 46.135 45.8419C46.5366 45.0717 46.9251 44.2648 47.5535 43.6544C49.6786 41.8757 51.9237 40.1834 54.4817 39.0779C57.3369 37.768 60.4529 37.2231 63.5246 36.694C68.3068 35.8845 73.1255 35.2793 77.9677 35.0174C84.9194 34.8838 91.871 35.0462 98.8227 34.9571Z" fill="#DD2326"/>
<path d="M44.2211 37.1131C45.7439 36.1334 47.5562 35.7823 49.298 35.4077C49.0894 35.5623 48.8834 35.7116 48.6722 35.8609C48.075 36.0731 47.4779 36.2827 46.8938 36.5263C45.7987 36.9586 44.6722 37.4222 43.8326 38.2736C43.0503 39.0674 42.4428 40.0079 41.7466 40.8724C42.3124 39.4813 42.92 37.9724 44.2211 37.1131Z" fill="#DD2326"/>
<path d="M139.516 37.2545C141.033 37.1183 142.561 36.9951 144.087 37.1157C142.812 37.6632 141.422 37.878 140.043 37.9147C136.095 38.0168 132.131 37.9068 128.207 37.4353C131.97 37.1392 135.748 37.3802 139.516 37.2545Z" fill="#DD2326"/>
<path d="M64.6252 49.7767C67.5795 48.6345 70.6799 47.7674 73.8532 47.5945C69.7516 48.7655 65.5587 49.7872 61.7517 51.7781C60.4062 52.4828 59.358 53.6171 58.4297 54.7986C58.9355 53.7874 59.4701 52.7395 60.3775 52.0296C61.6422 51.0236 63.1441 50.3871 64.6252 49.7767Z" fill="#DD2326"/>
<path d="M111.083 64.5464C114.679 64.6669 118.233 64.067 121.798 63.7212C120.356 64.3394 119.511 65.7488 118.241 66.6002C116.799 67.3154 115.13 67.0927 113.589 67.3861C110.937 67.7293 108.682 69.2802 106.228 70.2206C106.087 69.7727 105.947 69.3247 105.808 68.8793C106.598 67.3966 106.718 65.6493 106.45 64.0146C107.941 64.5071 109.527 64.515 111.083 64.5464Z" fill="#DD2326"/>
<path d="M22.0728 112.549C23.3792 112.031 24.8029 111.955 26.1901 111.863C26.0884 112.479 26.1015 113.147 25.8198 113.715C25.3896 114.163 24.842 114.472 24.3987 114.904C24.0467 116.005 24.8368 117.115 25.7208 117.7C27.181 118.624 28.8628 119.099 30.4404 119.772C36.6124 122.124 42.7974 124.445 48.9564 126.829C51.4623 127.78 54.0333 128.6 56.4061 129.86C58.427 130.916 59.6655 133.02 60.2183 135.176C60.7216 137.143 60.5938 139.189 60.6016 141.201C60.6095 148.711 60.6329 156.219 60.6329 163.73C60.646 165.415 60.5286 167.175 61.1962 168.763C61.9263 170.557 63.5221 171.864 65.3004 172.53C67.3369 173.355 69.5689 173.242 71.7123 173.494C74.8518 173.651 77.9339 174.547 81.0968 174.311C85.2089 174.028 89.2453 173.109 93.3418 172.671C101.31 171.162 109.357 170.117 117.357 168.783C121.383 168.236 125.399 167.618 129.412 166.984C135.088 165.978 140.804 165.229 146.478 164.207C149.716 163.586 153.041 163.513 156.261 162.769C159.27 162.111 161.928 160.057 163.401 157.349C164.42 155.551 164.822 153.466 164.874 151.418C164.882 138.613 164.83 125.805 165.033 113.003C166.621 113.301 168.23 113.935 169.302 115.201C170.472 116.61 171.129 118.412 171.247 120.238C171.375 122.245 171.291 124.259 171.294 126.269C171.268 136.313 171.315 146.356 171.244 156.4C171.307 158.931 169.672 161.04 167.974 162.729C166.981 163.701 165.662 164.246 164.326 164.537C161.179 165.244 157.977 165.65 154.809 166.229C151.659 166.832 148.452 167.07 145.31 167.712C140.006 168.519 134.713 169.37 129.435 170.324C121.709 171.597 113.946 172.629 106.239 174.028C101.065 174.843 95.8841 175.616 90.7264 176.532C84.6691 177.355 78.6692 178.555 72.6328 179.501C69.3551 179.914 66.1218 180.606 62.8493 181.044C61.0345 181.245 58.9276 181.169 57.5639 179.778C56.2862 178.66 55.8638 176.907 55.869 175.267C55.8273 170.549 55.8768 165.828 55.8559 161.108C55.59 155.001 55.7855 148.884 55.7021 142.773C55.9081 139.755 55.9863 136.449 54.2993 133.803C53.1598 131.911 51.152 130.848 49.1702 130.065C42.1873 127.303 35.2017 124.553 28.2214 121.784C26.0936 120.94 23.8851 120.188 22.0024 118.847C20.6987 117.899 19.7521 116.206 20.1511 114.564C20.3571 113.592 21.1863 112.898 22.0728 112.549Z" fill="#DD2326"/>
<path d="M20.4015 121.886C22.8969 123.044 25.554 123.775 28.1328 124.715C34.151 126.85 40.3178 128.511 46.3855 130.484C48.0673 131.01 49.7257 131.67 51.478 131.927C52.3228 132.042 52.8991 132.758 53.4467 133.344C54.9981 135.136 55.3788 137.601 55.4075 139.896C55.4414 151.687 55.2824 163.481 55.3841 175.272C55.3684 176.834 55.796 178.358 56.5209 179.736C53.7674 178.903 51.1964 177.596 48.5341 176.519C45.791 175.301 42.954 174.298 40.2213 173.054C37.8145 171.838 35.1627 171.167 32.8394 169.779C32.0676 169.331 31.5304 168.598 31.0819 167.846C28.6673 163.699 26.3936 159.468 24.052 155.279C22.7769 153.162 21.7574 150.894 20.3154 148.879L20.3441 148.693C20.5736 147.166 20.3806 145.62 20.4067 144.085C20.4015 136.687 20.3702 129.287 20.4015 121.886Z" fill="#DD2326"/>
</svg>
